<svg xmlns="http://www.w3.org/2000/svg" xmlns:xlink="http://www.w3.org/1999/xlink" width="500" zoomAndPan="magnify" viewBox="0 0 375 374.999991" height="500" preserveAspectRatio="xMidYMid meet" version="1.0"><defs><g/><clipPath id="9365fd3179"><path d="M 144.066406 116.261719 L 231.066406 116.261719 L 231.066406 202.511719 L 144.066406 202.511719 Z M 144.066406 116.261719 " clip-rule="nonzero"/></clipPath></defs><g clip-path="url(#9365fd3179)"><path fill="#ffffff" d="M 229.753906 181.070312 L 218.164062 174.394531 L 218.164062 166.859375 L 229.753906 160.183594 Z M 179.835938 151.832031 L 176.945312 151.832031 C 177.476562 150.496094 177.84375 149.082031 178.019531 147.605469 C 178.492188 149.082031 179.101562 150.496094 179.835938 151.832031 Z M 223.859375 140.316406 C 223.859375 146.074219 221.707031 151.339844 218.164062 155.359375 C 217.957031 155.589844 217.746094 155.820312 217.53125 156.046875 C 217.328125 156.261719 217.117188 156.472656 216.902344 156.675781 C 212.785156 160.660156 207.175781 163.113281 201.003906 163.113281 C 193.140625 163.113281 186.195312 159.136719 182.082031 153.089844 C 181.941406 152.882812 181.804688 152.671875 181.667969 152.460938 C 181.539062 152.253906 181.410156 152.042969 181.285156 151.832031 C 179.292969 148.449219 178.148438 144.511719 178.148438 140.316406 C 178.148438 127.742188 188.402344 117.515625 201.003906 117.515625 C 213.605469 117.515625 223.859375 127.742188 223.859375 140.316406 Z M 161.117188 129.835938 C 169.8125 129.835938 176.886719 136.894531 176.886719 145.570312 C 176.886719 147.796875 176.417969 149.914062 175.582031 151.832031 C 175.488281 152.042969 175.394531 152.253906 175.292969 152.460938 C 175.1875 152.671875 175.082031 152.882812 174.96875 153.089844 C 172.289062 157.980469 167.085938 161.304688 161.117188 161.304688 C 157.855469 161.304688 154.820312 160.308594 152.300781 158.609375 C 152.085938 158.464844 151.878906 158.316406 151.671875 158.160156 C 151.457031 158 151.246094 157.835938 151.042969 157.664062 C 147.5625 154.773438 145.34375 150.425781 145.34375 145.570312 C 145.34375 136.894531 152.421875 129.835938 161.117188 129.835938 Z M 216.902344 175.117188 L 216.902344 188.164062 L 152.300781 188.164062 L 152.300781 160.101562 C 154.875 161.660156 157.890625 162.558594 161.117188 162.558594 C 167.800781 162.558594 173.597656 158.695312 176.382812 153.089844 L 180.578125 153.089844 C 184.847656 159.863281 192.40625 164.371094 201.003906 164.371094 C 207.089844 164.371094 212.65625 162.109375 216.902344 158.386719 Z M 230.699219 158.550781 C 230.503906 158.4375 230.261719 158.4375 230.070312 158.550781 L 218.164062 165.410156 L 218.164062 157.199219 C 222.460938 152.855469 225.117188 146.886719 225.117188 140.316406 C 225.117188 127.050781 214.300781 116.257812 201.003906 116.257812 C 188.070312 116.257812 177.484375 126.46875 176.914062 139.230469 C 174.390625 132.996094 168.261719 128.582031 161.117188 128.582031 C 151.726562 128.582031 144.085938 136.203125 144.085938 145.570312 C 144.085938 151.179688 146.828125 156.160156 151.042969 159.257812 L 151.042969 189.421875 L 179.859375 189.421875 L 172.648438 201.882812 L 173.738281 202.507812 L 181.3125 189.421875 L 188.191406 189.421875 L 195.765625 202.507812 L 196.859375 201.882812 L 189.648438 189.421875 L 218.164062 189.421875 L 218.164062 175.84375 L 230.070312 182.703125 C 230.164062 182.757812 230.273438 182.785156 230.382812 182.785156 C 230.492188 182.785156 230.601562 182.757812 230.699219 182.703125 C 230.894531 182.589844 231.011719 182.382812 231.011719 182.15625 L 231.011719 159.09375 C 231.011719 158.871094 230.894531 158.664062 230.699219 158.550781 " fill-opacity="1" fill-rule="nonzero"/></g><path fill="#ffffff" d="M 161.117188 144.148438 C 161.902344 144.148438 162.542969 144.785156 162.542969 145.570312 C 162.542969 146.355469 161.902344 146.992188 161.117188 146.992188 C 160.332031 146.992188 159.691406 146.355469 159.691406 145.570312 C 159.691406 144.785156 160.332031 144.148438 161.117188 144.148438 Z M 161.117188 148.25 C 162.597656 148.25 163.804688 147.046875 163.804688 145.570312 C 163.804688 144.09375 162.597656 142.890625 161.117188 142.890625 C 159.636719 142.890625 158.429688 144.09375 158.429688 145.570312 C 158.429688 147.046875 159.636719 148.25 161.117188 148.25 " fill-opacity="1" fill-rule="nonzero"/><path fill="#ffffff" d="M 197.15625 121.660156 L 196.902344 120.429688 C 194.277344 120.964844 191.816406 122 189.59375 123.503906 L 190.300781 124.542969 C 192.386719 123.132812 194.695312 122.164062 197.15625 121.660156 " fill-opacity="1" fill-rule="nonzero"/><path fill="#ffffff" d="M 184.257812 151.832031 C 184.40625 152.042969 184.554688 152.253906 184.707031 152.460938 C 184.867188 152.671875 185.035156 152.882812 185.203125 153.089844 C 188.9375 157.675781 194.632812 160.613281 201.003906 160.613281 C 207.375 160.613281 213.070312 157.675781 216.804688 153.089844 C 216.972656 152.882812 217.136719 152.671875 217.296875 152.460938 C 217.453125 152.253906 217.601562 152.042969 217.746094 151.832031 C 220.015625 148.558594 221.351562 144.589844 221.351562 140.316406 C 221.351562 129.121094 212.222656 120.015625 201.003906 120.015625 L 201.003906 121.273438 C 211.527344 121.273438 220.09375 129.816406 220.09375 140.316406 C 220.09375 144.640625 218.636719 148.632812 216.191406 151.832031 C 216.03125 152.042969 215.863281 152.253906 215.691406 152.460938 C 215.515625 152.671875 215.332031 152.882812 215.148438 153.089844 C 211.652344 156.9375 206.605469 159.359375 201.003906 159.359375 C 195.398438 159.359375 190.355469 156.9375 186.859375 153.089844 C 186.671875 152.882812 186.492188 152.671875 186.3125 152.460938 C 186.140625 152.253906 185.976562 152.042969 185.816406 151.832031 C 183.371094 148.632812 181.914062 144.640625 181.914062 140.316406 C 181.914062 134.984375 184.175781 129.863281 188.121094 126.265625 L 187.269531 125.335938 C 183.066406 129.175781 180.65625 134.632812 180.65625 140.316406 C 180.65625 144.589844 181.988281 148.558594 184.257812 151.832031 " fill-opacity="1" fill-rule="nonzero"/><path fill="#ffffff" d="M 203.960938 140.316406 C 203.960938 141.941406 202.632812 143.265625 201.003906 143.265625 C 199.375 143.265625 198.046875 141.941406 198.046875 140.316406 C 198.046875 138.6875 199.375 137.367188 201.003906 137.367188 C 202.632812 137.367188 203.960938 138.6875 203.960938 140.316406 Z M 201.003906 144.523438 C 203.328125 144.523438 205.21875 142.636719 205.21875 140.316406 C 205.21875 137.996094 203.328125 136.109375 201.003906 136.109375 C 198.679688 136.109375 196.785156 137.996094 196.785156 140.316406 C 196.785156 142.636719 198.679688 144.523438 201.003906 144.523438 " fill-opacity="1" fill-rule="nonzero"/><path fill="#ffffff" d="M 161.117188 178.617188 L 167.015625 178.617188 L 167.015625 177.363281 L 161.117188 177.363281 L 161.117188 178.617188 " fill-opacity="1" fill-rule="nonzero"/><path fill="#ffffff" d="M 170.925781 178.617188 L 208.972656 178.617188 L 208.972656 177.363281 L 170.925781 177.363281 L 170.925781 178.617188 " fill-opacity="1" fill-rule="nonzero"/><g fill="#ffffff" fill-opacity="1"><g transform="translate(78.432559, 234.971454)"><g><path d="M 11.890625 -7.734375 C 12.878906 -7.515625 13.640625 -7.085938 14.171875 -6.453125 C 14.703125 -5.816406 14.96875 -5 14.96875 -4 C 14.96875 -2.71875 14.492188 -1.726562 13.546875 -1.03125 C 12.597656 -0.34375 11.195312 0 9.34375 0 L 2.4375 0 L 2.4375 -15 L 8.90625 -15 C 10.582031 -15 11.878906 -14.660156 12.796875 -13.984375 C 13.722656 -13.316406 14.1875 -12.367188 14.1875 -11.140625 C 14.1875 -10.304688 13.976562 -9.597656 13.5625 -9.015625 C 13.15625 -8.441406 12.597656 -8.015625 11.890625 -7.734375 Z M 4.03125 -13.6875 L 4.03125 -8.25 L 8.796875 -8.25 C 10.015625 -8.25 10.953125 -8.476562 11.609375 -8.9375 C 12.265625 -9.40625 12.59375 -10.082031 12.59375 -10.96875 C 12.59375 -11.851562 12.265625 -12.523438 11.609375 -12.984375 C 10.953125 -13.453125 10.015625 -13.6875 8.796875 -13.6875 Z M 9.3125 -1.3125 C 10.65625 -1.3125 11.671875 -1.535156 12.359375 -1.984375 C 13.046875 -2.441406 13.390625 -3.160156 13.390625 -4.140625 C 13.390625 -6.003906 12.03125 -6.9375 9.3125 -6.9375 L 4.03125 -6.9375 L 4.03125 -1.3125 Z M 9.3125 -1.3125 "/></g></g></g><g fill="#ffffff" fill-opacity="1"><g transform="translate(101.014122, 234.971454)"><g><path d="M 2.4375 -15 L 4.03125 -15 L 4.03125 -1.375 L 12.421875 -1.375 L 12.421875 0 L 2.4375 0 Z M 2.4375 -15 "/></g></g></g><g fill="#ffffff" fill-opacity="1"><g transform="translate(120.061064, 234.971454)"><g><path d="M 9 0.125 C 7.507812 0.125 6.160156 -0.203125 4.953125 -0.859375 C 3.753906 -1.523438 2.8125 -2.4375 2.125 -3.59375 C 1.445312 -4.75 1.109375 -6.050781 1.109375 -7.5 C 1.109375 -8.9375 1.445312 -10.234375 2.125 -11.390625 C 2.8125 -12.546875 3.753906 -13.457031 4.953125 -14.125 C 6.160156 -14.789062 7.507812 -15.125 9 -15.125 C 10.476562 -15.125 11.8125 -14.796875 13 -14.140625 C 14.195312 -13.484375 15.140625 -12.570312 15.828125 -11.40625 C 16.515625 -10.238281 16.859375 -8.9375 16.859375 -7.5 C 16.859375 -6.050781 16.515625 -4.742188 15.828125 -3.578125 C 15.140625 -2.421875 14.195312 -1.515625 13 -0.859375 C 11.8125 -0.203125 10.476562 0.125 9 0.125 Z M 9 -1.28125 C 10.1875 -1.28125 11.253906 -1.546875 12.203125 -2.078125 C 13.160156 -2.617188 13.910156 -3.363281 14.453125 -4.3125 C 15.003906 -5.257812 15.28125 -6.320312 15.28125 -7.5 C 15.28125 -8.664062 15.003906 -9.722656 14.453125 -10.671875 C 13.910156 -11.628906 13.160156 -12.375 12.203125 -12.90625 C 11.253906 -13.4375 10.1875 -13.703125 9 -13.703125 C 7.8125 -13.703125 6.734375 -13.4375 5.765625 -12.90625 C 4.804688 -12.375 4.050781 -11.628906 3.5 -10.671875 C 2.945312 -9.722656 2.671875 -8.664062 2.671875 -7.5 C 2.671875 -6.320312 2.945312 -5.257812 3.5 -4.3125 C 4.050781 -3.363281 4.804688 -2.617188 5.765625 -2.078125 C 6.734375 -1.546875 7.8125 -1.28125 9 -1.28125 Z M 9 -1.28125 "/></g></g></g><g fill="#ffffff" fill-opacity="1"><g transform="translate(144.463488, 234.971454)"><g><path d="M 8.953125 0.125 C 7.460938 0.125 6.125 -0.203125 4.9375 -0.859375 C 3.75 -1.515625 2.8125 -2.421875 2.125 -3.578125 C 1.445312 -4.742188 1.109375 -6.050781 1.109375 -7.5 C 1.109375 -8.9375 1.445312 -10.238281 2.125 -11.40625 C 2.8125 -12.570312 3.753906 -13.484375 4.953125 -14.140625 C 6.148438 -14.796875 7.488281 -15.125 8.96875 -15.125 C 10.082031 -15.125 11.109375 -14.9375 12.046875 -14.5625 C 12.992188 -14.195312 13.796875 -13.65625 14.453125 -12.9375 L 13.453125 -11.9375 C 12.285156 -13.113281 10.804688 -13.703125 9.015625 -13.703125 C 7.828125 -13.703125 6.75 -13.429688 5.78125 -12.890625 C 4.8125 -12.347656 4.050781 -11.601562 3.5 -10.65625 C 2.945312 -9.71875 2.671875 -8.664062 2.671875 -7.5 C 2.671875 -6.320312 2.945312 -5.257812 3.5 -4.3125 C 4.050781 -3.375 4.8125 -2.632812 5.78125 -2.09375 C 6.75 -1.550781 7.828125 -1.28125 9.015625 -1.28125 C 10.816406 -1.28125 12.296875 -1.878906 13.453125 -3.078125 L 14.453125 -2.078125 C 13.796875 -1.359375 12.992188 -0.8125 12.046875 -0.4375 C 11.097656 -0.0625 10.066406 0.125 8.953125 0.125 Z M 8.953125 0.125 "/></g></g></g><g fill="#ffffff" fill-opacity="1"><g transform="translate(166.295278, 234.971454)"><g><path d="M 7.09375 -7.046875 L 4.03125 -3.9375 L 4.03125 0 L 2.4375 0 L 2.4375 -15 L 4.03125 -15 L 4.03125 -5.9375 L 12.828125 -15 L 14.65625 -15 L 8.15625 -8.203125 L 15.109375 0 L 13.21875 0 Z M 7.09375 -7.046875 "/></g></g></g><g fill="#ffffff" fill-opacity="1"><g transform="translate(187.955692, 234.971454)"><g><path d="M 4.03125 -13.625 L 4.03125 -7.734375 L 11.78125 -7.734375 L 11.78125 -6.359375 L 4.03125 -6.359375 L 4.03125 0 L 2.4375 0 L 2.4375 -15 L 12.71875 -15 L 12.71875 -13.625 Z M 4.03125 -13.625 "/></g></g></g><g fill="#ffffff" fill-opacity="1"><g transform="translate(207.9452, 234.971454)"><g><path d="M 2.4375 -15 L 4.03125 -15 L 4.03125 -1.375 L 12.421875 -1.375 L 12.421875 0 L 2.4375 0 Z M 2.4375 -15 "/></g></g></g><g fill="#ffffff" fill-opacity="1"><g transform="translate(226.992139, 234.971454)"><g><path d="M 2.4375 -15 L 4.03125 -15 L 4.03125 0 L 2.4375 0 Z M 2.4375 -15 "/></g></g></g><g fill="#ffffff" fill-opacity="1"><g transform="translate(239.890991, 234.971454)"><g><path d="M 8.953125 0.125 C 7.460938 0.125 6.125 -0.203125 4.9375 -0.859375 C 3.75 -1.515625 2.8125 -2.421875 2.125 -3.578125 C 1.445312 -4.742188 1.109375 -6.050781 1.109375 -7.5 C 1.109375 -8.9375 1.445312 -10.238281 2.125 -11.40625 C 2.8125 -12.570312 3.753906 -13.484375 4.953125 -14.140625 C 6.148438 -14.796875 7.488281 -15.125 8.96875 -15.125 C 10.082031 -15.125 11.109375 -14.9375 12.046875 -14.5625 C 12.992188 -14.195312 13.796875 -13.65625 14.453125 -12.9375 L 13.453125 -11.9375 C 12.285156 -13.113281 10.804688 -13.703125 9.015625 -13.703125 C 7.828125 -13.703125 6.75 -13.429688 5.78125 -12.890625 C 4.8125 -12.347656 4.050781 -11.601562 3.5 -10.65625 C 2.945312 -9.71875 2.671875 -8.664062 2.671875 -7.5 C 2.671875 -6.320312 2.945312 -5.257812 3.5 -4.3125 C 4.050781 -3.375 4.8125 -2.632812 5.78125 -2.09375 C 6.75 -1.550781 7.828125 -1.28125 9.015625 -1.28125 C 10.816406 -1.28125 12.296875 -1.878906 13.453125 -3.078125 L 14.453125 -2.078125 C 13.796875 -1.359375 12.992188 -0.8125 12.046875 -0.4375 C 11.097656 -0.0625 10.066406 0.125 8.953125 0.125 Z M 8.953125 0.125 "/></g></g></g><g fill="#ffffff" fill-opacity="1"><g transform="translate(261.722781, 234.971454)"><g><path d="M 7.09375 -7.046875 L 4.03125 -3.9375 L 4.03125 0 L 2.4375 0 L 2.4375 -15 L 4.03125 -15 L 4.03125 -5.9375 L 12.828125 -15 L 14.65625 -15 L 8.15625 -8.203125 L 15.109375 0 L 13.21875 0 Z M 7.09375 -7.046875 "/></g></g></g><g fill="#ffffff" fill-opacity="1"><g transform="translate(283.383206, 234.971454)"><g><path d="M 6.578125 0.125 C 5.460938 0.125 4.394531 -0.0507812 3.375 -0.40625 C 2.351562 -0.757812 1.5625 -1.234375 1 -1.828125 L 1.625 -3.046875 C 2.164062 -2.503906 2.882812 -2.0625 3.78125 -1.71875 C 4.6875 -1.382812 5.617188 -1.21875 6.578125 -1.21875 C 7.921875 -1.21875 8.925781 -1.460938 9.59375 -1.953125 C 10.269531 -2.453125 10.609375 -3.09375 10.609375 -3.875 C 10.609375 -4.476562 10.425781 -4.957031 10.0625 -5.3125 C 9.695312 -5.664062 9.25 -5.9375 8.71875 -6.125 C 8.1875 -6.320312 7.453125 -6.535156 6.515625 -6.765625 C 5.378906 -7.054688 4.476562 -7.332031 3.8125 -7.59375 C 3.144531 -7.851562 2.570312 -8.253906 2.09375 -8.796875 C 1.613281 -9.347656 1.375 -10.085938 1.375 -11.015625 C 1.375 -11.765625 1.570312 -12.453125 1.96875 -13.078125 C 2.375 -13.703125 2.988281 -14.195312 3.8125 -14.5625 C 4.644531 -14.9375 5.671875 -15.125 6.890625 -15.125 C 7.753906 -15.125 8.59375 -15.003906 9.40625 -14.765625 C 10.226562 -14.535156 10.941406 -14.210938 11.546875 -13.796875 L 11.015625 -12.53125 C 10.378906 -12.945312 9.703125 -13.257812 8.984375 -13.46875 C 8.273438 -13.675781 7.578125 -13.78125 6.890625 -13.78125 C 5.578125 -13.78125 4.585938 -13.523438 3.921875 -13.015625 C 3.265625 -12.503906 2.9375 -11.847656 2.9375 -11.046875 C 2.9375 -10.453125 3.117188 -9.972656 3.484375 -9.609375 C 3.847656 -9.242188 4.300781 -8.960938 4.84375 -8.765625 C 5.394531 -8.578125 6.132812 -8.367188 7.0625 -8.140625 C 8.164062 -7.867188 9.054688 -7.597656 9.734375 -7.328125 C 10.410156 -7.066406 10.984375 -6.664062 11.453125 -6.125 C 11.929688 -5.59375 12.171875 -4.875 12.171875 -3.96875 C 12.171875 -3.207031 11.96875 -2.515625 11.5625 -1.890625 C 11.15625 -1.273438 10.53125 -0.785156 9.6875 -0.421875 C 8.84375 -0.0546875 7.804688 0.125 6.578125 0.125 Z M 6.578125 0.125 "/></g></g></g><g fill="#ffffff" fill-opacity="1"><g transform="translate(96.278385, 175.98595)"><g><path d="M 5.828125 -5.84375 L 5.828125 0 L 5.328125 0 L 1.5625 -4.734375 L 1.5625 0 L 0.953125 0 L 0.953125 -5.84375 L 1.453125 -5.84375 L 5.21875 -1.09375 L 5.21875 -5.84375 Z M 5.828125 -5.84375 "/></g></g></g><g fill="#ffffff" fill-opacity="1"><g transform="translate(104.311321, 175.98595)"><g><path d="M 0.953125 -5.84375 L 1.5625 -5.84375 L 1.5625 0 L 0.953125 0 Z M 0.953125 -5.84375 "/></g></g></g><g fill="#ffffff" fill-opacity="1"><g transform="translate(108.081705, 175.98595)"><g><path d="M 2.5625 0.046875 C 2.125 0.046875 1.707031 -0.0195312 1.3125 -0.15625 C 0.914062 -0.289062 0.609375 -0.472656 0.390625 -0.703125 L 0.640625 -1.1875 C 0.847656 -0.976562 1.125 -0.804688 1.46875 -0.671875 C 1.820312 -0.535156 2.1875 -0.46875 2.5625 -0.46875 C 3.082031 -0.46875 3.472656 -0.5625 3.734375 -0.75 C 3.992188 -0.945312 4.125 -1.203125 4.125 -1.515625 C 4.125 -1.742188 4.050781 -1.925781 3.90625 -2.0625 C 3.769531 -2.207031 3.597656 -2.316406 3.390625 -2.390625 C 3.191406 -2.460938 2.90625 -2.546875 2.53125 -2.640625 C 2.09375 -2.742188 1.742188 -2.847656 1.484375 -2.953125 C 1.222656 -3.054688 1 -3.210938 0.8125 -3.421875 C 0.625 -3.640625 0.53125 -3.925781 0.53125 -4.28125 C 0.53125 -4.582031 0.609375 -4.851562 0.765625 -5.09375 C 0.921875 -5.332031 1.160156 -5.523438 1.484375 -5.671875 C 1.804688 -5.816406 2.207031 -5.890625 2.6875 -5.890625 C 3.019531 -5.890625 3.34375 -5.84375 3.65625 -5.75 C 3.976562 -5.65625 4.257812 -5.53125 4.5 -5.375 L 4.28125 -4.875 C 4.039062 -5.039062 3.78125 -5.160156 3.5 -5.234375 C 3.226562 -5.316406 2.957031 -5.359375 2.6875 -5.359375 C 2.175781 -5.359375 1.789062 -5.257812 1.53125 -5.0625 C 1.269531 -4.863281 1.140625 -4.613281 1.140625 -4.3125 C 1.140625 -4.070312 1.207031 -3.878906 1.34375 -3.734375 C 1.488281 -3.597656 1.671875 -3.488281 1.890625 -3.40625 C 2.109375 -3.332031 2.394531 -3.253906 2.75 -3.171875 C 3.175781 -3.066406 3.519531 -2.960938 3.78125 -2.859375 C 4.050781 -2.753906 4.273438 -2.597656 4.453125 -2.390625 C 4.640625 -2.179688 4.734375 -1.898438 4.734375 -1.546875 C 4.734375 -1.242188 4.65625 -0.972656 4.5 -0.734375 C 4.34375 -0.492188 4.097656 -0.300781 3.765625 -0.15625 C 3.441406 -0.0195312 3.039062 0.046875 2.5625 0.046875 Z M 2.5625 0.046875 "/></g></g></g><g fill="#ffffff" fill-opacity="1"><g transform="translate(114.463005, 175.98595)"><g><path d="M 4.609375 -1.5625 L 1.359375 -1.5625 L 0.65625 0 L 0.015625 0 L 2.6875 -5.84375 L 3.296875 -5.84375 L 5.96875 0 L 5.3125 0 Z M 4.390625 -2.0625 L 2.984375 -5.203125 L 1.578125 -2.0625 Z M 4.390625 -2.0625 "/></g></g></g><g fill="#ffffff" fill-opacity="1"><g transform="translate(121.695148, 175.98595)"><g><path d="M 4.9375 0 L 3.609375 -1.875 C 3.453125 -1.863281 3.296875 -1.859375 3.140625 -1.859375 L 1.5625 -1.859375 L 1.5625 0 L 0.953125 0 L 0.953125 -5.84375 L 3.140625 -5.84375 C 3.878906 -5.84375 4.460938 -5.660156 4.890625 -5.296875 C 5.316406 -4.941406 5.53125 -4.457031 5.53125 -3.84375 C 5.53125 -3.382812 5.410156 -3 5.171875 -2.6875 C 4.941406 -2.375 4.613281 -2.144531 4.1875 -2 L 5.609375 0 Z M 3.125 -2.375 C 3.695312 -2.375 4.132812 -2.5 4.4375 -2.75 C 4.75 -3.007812 4.90625 -3.375 4.90625 -3.84375 C 4.90625 -4.3125 4.75 -4.671875 4.4375 -4.921875 C 4.132812 -5.179688 3.695312 -5.3125 3.125 -5.3125 L 1.5625 -5.3125 L 1.5625 -2.375 Z M 3.125 -2.375 "/></g></g></g><g fill="#ffffff" fill-opacity="1"><g transform="translate(128.977335, 175.98595)"><g><path d="M 5.0625 -2.921875 L 5.65625 -2.921875 L 5.65625 -0.6875 C 5.382812 -0.445312 5.0625 -0.265625 4.6875 -0.140625 C 4.3125 -0.015625 3.921875 0.046875 3.515625 0.046875 C 2.929688 0.046875 2.40625 -0.078125 1.9375 -0.328125 C 1.46875 -0.585938 1.097656 -0.941406 0.828125 -1.390625 C 0.566406 -1.847656 0.4375 -2.359375 0.4375 -2.921875 C 0.4375 -3.484375 0.566406 -3.988281 0.828125 -4.4375 C 1.097656 -4.894531 1.46875 -5.25 1.9375 -5.5 C 2.40625 -5.757812 2.929688 -5.890625 3.515625 -5.890625 C 3.960938 -5.890625 4.375 -5.816406 4.75 -5.671875 C 5.125 -5.535156 5.4375 -5.328125 5.6875 -5.046875 L 5.3125 -4.65625 C 4.84375 -5.113281 4.253906 -5.34375 3.546875 -5.34375 C 3.078125 -5.34375 2.648438 -5.238281 2.265625 -5.03125 C 1.878906 -4.820312 1.578125 -4.53125 1.359375 -4.15625 C 1.148438 -3.789062 1.046875 -3.378906 1.046875 -2.921875 C 1.046875 -2.460938 1.148438 -2.050781 1.359375 -1.6875 C 1.578125 -1.320312 1.875 -1.03125 2.25 -0.8125 C 2.632812 -0.601562 3.0625 -0.5 3.53125 -0.5 C 4.132812 -0.5 4.644531 -0.648438 5.0625 -0.953125 Z M 5.0625 -2.921875 "/></g></g></g><g fill="#ffffff" fill-opacity="1"><g transform="translate(254.018688, 175.860838)"><g><path d="M 4.421875 -0.53125 L 4.421875 0 L 0.328125 0 L 0.328125 -0.421875 L 2.75 -2.796875 C 3.0625 -3.097656 3.269531 -3.359375 3.375 -3.578125 C 3.476562 -3.796875 3.53125 -4.019531 3.53125 -4.25 C 3.53125 -4.59375 3.410156 -4.859375 3.171875 -5.046875 C 2.941406 -5.242188 2.609375 -5.34375 2.171875 -5.34375 C 1.484375 -5.34375 0.953125 -5.125 0.578125 -4.6875 L 0.15625 -5.0625 C 0.382812 -5.320312 0.671875 -5.523438 1.015625 -5.671875 C 1.367188 -5.816406 1.769531 -5.890625 2.21875 -5.890625 C 2.8125 -5.890625 3.28125 -5.75 3.625 -5.46875 C 3.976562 -5.1875 4.15625 -4.800781 4.15625 -4.3125 C 4.15625 -4.007812 4.085938 -3.71875 3.953125 -3.4375 C 3.816406 -3.164062 3.566406 -2.847656 3.203125 -2.484375 L 1.203125 -0.53125 Z M 4.421875 -0.53125 "/></g></g></g><g fill="#ffffff" fill-opacity="1"><g transform="translate(260.007939, 175.860838)"><g><path d="M 2.765625 0.046875 C 2.304688 0.046875 1.898438 -0.0703125 1.546875 -0.3125 C 1.203125 -0.550781 0.929688 -0.894531 0.734375 -1.34375 C 0.535156 -1.789062 0.4375 -2.316406 0.4375 -2.921875 C 0.4375 -3.523438 0.535156 -4.050781 0.734375 -4.5 C 0.929688 -4.945312 1.203125 -5.289062 1.546875 -5.53125 C 1.898438 -5.769531 2.304688 -5.890625 2.765625 -5.890625 C 3.210938 -5.890625 3.613281 -5.769531 3.96875 -5.53125 C 4.320312 -5.289062 4.597656 -4.945312 4.796875 -4.5 C 4.992188 -4.050781 5.09375 -3.523438 5.09375 -2.921875 C 5.09375 -2.316406 4.992188 -1.789062 4.796875 -1.34375 C 4.597656 -0.894531 4.320312 -0.550781 3.96875 -0.3125 C 3.613281 -0.0703125 3.210938 0.046875 2.765625 0.046875 Z M 2.765625 -0.5 C 3.097656 -0.5 3.394531 -0.59375 3.65625 -0.78125 C 3.914062 -0.96875 4.117188 -1.242188 4.265625 -1.609375 C 4.410156 -1.972656 4.484375 -2.410156 4.484375 -2.921875 C 4.484375 -3.429688 4.410156 -3.863281 4.265625 -4.21875 C 4.117188 -4.582031 3.914062 -4.859375 3.65625 -5.046875 C 3.394531 -5.242188 3.097656 -5.34375 2.765625 -5.34375 C 2.421875 -5.34375 2.117188 -5.242188 1.859375 -5.046875 C 1.609375 -4.859375 1.410156 -4.582031 1.265625 -4.21875 C 1.117188 -3.863281 1.046875 -3.429688 1.046875 -2.921875 C 1.046875 -2.410156 1.117188 -1.972656 1.265625 -1.609375 C 1.410156 -1.242188 1.609375 -0.96875 1.859375 -0.78125 C 2.117188 -0.59375 2.421875 -0.5 2.765625 -0.5 Z M 2.765625 -0.5 "/></g></g></g><g fill="#ffffff" fill-opacity="1"><g transform="translate(254.018688, 185.592613)"><g><path d="M 4.421875 -0.53125 L 4.421875 0 L 0.328125 0 L 0.328125 -0.421875 L 2.75 -2.796875 C 3.0625 -3.097656 3.269531 -3.359375 3.375 -3.578125 C 3.476562 -3.796875 3.53125 -4.019531 3.53125 -4.25 C 3.53125 -4.59375 3.410156 -4.859375 3.171875 -5.046875 C 2.941406 -5.242188 2.609375 -5.34375 2.171875 -5.34375 C 1.484375 -5.34375 0.953125 -5.125 0.578125 -4.6875 L 0.15625 -5.0625 C 0.382812 -5.320312 0.671875 -5.523438 1.015625 -5.671875 C 1.367188 -5.816406 1.769531 -5.890625 2.21875 -5.890625 C 2.8125 -5.890625 3.28125 -5.75 3.625 -5.46875 C 3.976562 -5.1875 4.15625 -4.800781 4.15625 -4.3125 C 4.15625 -4.007812 4.085938 -3.71875 3.953125 -3.4375 C 3.816406 -3.164062 3.566406 -2.847656 3.203125 -2.484375 L 1.203125 -0.53125 Z M 4.421875 -0.53125 "/></g></g></g><g fill="#ffffff" fill-opacity="1"><g transform="translate(260.007939, 185.592613)"><g><path d="M 2.421875 -3.34375 C 3.035156 -3.300781 3.5 -3.128906 3.8125 -2.828125 C 4.132812 -2.535156 4.296875 -2.148438 4.296875 -1.671875 C 4.296875 -1.335938 4.210938 -1.039062 4.046875 -0.78125 C 3.890625 -0.53125 3.648438 -0.328125 3.328125 -0.171875 C 3.015625 -0.0234375 2.628906 0.046875 2.171875 0.046875 C 1.753906 0.046875 1.359375 -0.0195312 0.984375 -0.15625 C 0.609375 -0.289062 0.304688 -0.472656 0.078125 -0.703125 L 0.359375 -1.171875 C 0.554688 -0.972656 0.816406 -0.8125 1.140625 -0.6875 C 1.460938 -0.5625 1.804688 -0.5 2.171875 -0.5 C 2.648438 -0.5 3.019531 -0.601562 3.28125 -0.8125 C 3.539062 -1.019531 3.671875 -1.304688 3.671875 -1.671875 C 3.671875 -2.035156 3.539062 -2.320312 3.28125 -2.53125 C 3.019531 -2.738281 2.628906 -2.84375 2.109375 -2.84375 L 1.6875 -2.84375 L 1.6875 -3.28125 L 3.296875 -5.3125 L 0.3125 -5.3125 L 0.3125 -5.84375 L 4.078125 -5.84375 L 4.078125 -5.421875 Z M 2.421875 -3.34375 "/></g></g></g></svg>